<svg xmlns="http://www.w3.org/2000/svg" width="36" height="36" viewBox="0 0 36 36"><defs><style>.a{fill:#fff;}.b{fill:#111;stroke:#111;stroke-width:0.6px;}</style></defs><g transform="translate(-278 -6895)"><rect class="a" width="36" height="36" rx="14" transform="translate(278 6895)"/><g transform="translate(285.791 6902.494)"><path class="b" d="M.648,16.966h6.13A3.77,3.77,0,0,0,8.6,9.875,3.354,3.354,0,0,0,6.357,4H.648A.649.649,0,0,0,0,4.648V16.318A.649.649,0,0,0,.648,16.966ZM1.3,5.3h5.06a2.061,2.061,0,1,1,0,4.121H1.3Zm0,5.418H6.779a2.478,2.478,0,1,1,0,4.955H1.3Z"/><path class="b" d="M17.608,7.857c-2.817,0-4.975,2.5-4.871,4.459a4.843,4.843,0,0,0,4.871,5.173,4.915,4.915,0,0,0,4.231-2.4.648.648,0,0,0-1.118-.657,3.616,3.616,0,0,1-3.114,1.764,3.555,3.555,0,0,1-3.566-3.26c1.247.015,3.575-.163,7.768-.029.014,0,.023-.007.036-.007,1.729-.078-.163-5.04-4.239-5.04Zm-3.4,3.715a3.6,3.6,0,0,1,6.82.055C17.52,11.711,15.417,11.57,14.212,11.572Z" transform="translate(-1.725 -0.523)"/><path class="b" d="M20.411,6.261a.648.648,0,0,0,0-1.3H15.337a.648.648,0,0,0,0,1.3Z" transform="translate(-1.992 -0.131)"/></g></g></svg>