<svg xmlns="http://www.w3.org/2000/svg" width="36" height="36" viewBox="0 0 36 36"><defs><style>.a{fill:#fff;}.b{fill:#111;}</style></defs><g transform="translate(-278 -6895)"><rect class="a" width="36" height="36" rx="14" transform="translate(278 6895)"/><g transform="translate(286 6903)"><path class="b" d="M10.978,5.838a5.132,5.132,0,1,0,5.132,5.132,5.132,5.132,0,0,0-5.132-5.132Zm0,8.464A3.331,3.331,0,1,1,14.31,10.97,3.33,3.33,0,0,1,10.978,14.3Z" transform="translate(-0.974 -0.972)"/><path class="b" d="M14.126.063c-1.84-.086-6.4-.082-8.24,0a5.977,5.977,0,0,0-4.2,1.618C-.236,3.6.01,6.2.01,10c0,3.891-.217,6.423,1.678,8.317,1.931,1.93,4.561,1.678,8.317,1.678,3.854,0,5.184,0,6.547-.525,1.853-.719,3.251-2.375,3.388-5.35.087-1.841.082-6.4,0-8.24C19.775,2.366,17.89.237,14.126.063Zm2.913,16.979c-1.261,1.261-3.01,1.149-7.058,1.149-4.167,0-5.838.062-7.058-1.161-1.4-1.4-1.15-3.642-1.15-7.045,0-4.6-.473-7.921,4.149-8.158,1.062-.038,1.374-.05,4.047-.05l.038.025c4.442,0,7.926-.465,8.135,4.156.048,1.054.058,1.371.058,4.04,0,4.119.078,5.8-1.162,7.045Z" transform="translate(0 0)"/><circle class="b" cx="1.199" cy="1.199" r="1.199" transform="translate(14.141 3.464)"/></g></g></svg>