<svg xmlns="http://www.w3.org/2000/svg" width="36" height="36" viewBox="0 0 36 36"><defs><style>.a{fill:#fff;}.b{fill:#111;}</style></defs><g transform="translate(-278 -6895)"><rect class="a" width="36" height="36" rx="14" transform="translate(278 6895)"/><g transform="translate(286 6887.771)"><path class="b" d="M.429,17.427a12.187,12.187,0,0,0,6.543,1.886A11.966,11.966,0,0,0,19.112,7.146a4.969,4.969,0,0,0,1.794-3.364.657.657,0,0,0-.989-.566,2.714,2.714,0,0,1-2.207.37,4.686,4.686,0,0,0-5.551-.747A4.509,4.509,0,0,0,9.711,7.064,10.874,10.874,0,0,1,2.658,3.212.657.657,0,0,0,1.585,3.3a4.573,4.573,0,0,0-.1,4.517.683.683,0,0,0-.57.68,4.629,4.629,0,0,0,1.613,3.5.655.655,0,0,0-.168.68,4.711,4.711,0,0,0,2.666,2.856,7.64,7.64,0,0,1-4.161.695.656.656,0,0,0-.432,1.2Zm6.723-1.675a.657.657,0,0,0-.386-1.176,3.423,3.423,0,0,1-2.688-1.4,4.629,4.629,0,0,0,.9-.143.657.657,0,0,0-.042-1.277A3.368,3.368,0,0,1,2.38,9.465a4.529,4.529,0,0,0,1,.133.657.657,0,0,0,.374-1.2,3.26,3.26,0,0,1-1.4-3.559A12.2,12.2,0,0,0,10.44,8.442a.655.655,0,0,0,.671-.8,3.2,3.2,0,0,1,1.671-3.646,3.355,3.355,0,0,1,4.1.623,3.308,3.308,0,0,0,2.382.271,4.229,4.229,0,0,1-1.2,1.408.656.656,0,0,0-.279.57,10.67,10.67,0,0,1-2.938,7.84A10.746,10.746,0,0,1,6.973,18a11.02,11.02,0,0,1-3.536-.579,8.862,8.862,0,0,0,3.714-1.668Z" transform="translate(-0.124 15.226)"/></g></g></svg>