<svg xmlns="http://www.w3.org/2000/svg" width="36" height="36" viewBox="0 0 36 36"><defs><style>.a{fill:#fff;}.b{fill:#111;}</style></defs><g transform="translate(-278 -6895)"><rect class="a" width="36" height="36" rx="14" transform="translate(278 6895)"/><g transform="translate(286 6903)"><path class="b" d="M15.589,12.984l-.008.063c-1.833-.914-2.025-1.035-2.262-.68-.164.246-.643.8-.787.969s-.291.175-.539.063a6.766,6.766,0,0,1-2-1.238,7.563,7.563,0,0,1-1.384-1.726c-.244-.422.267-.482.732-1.362a.458.458,0,0,0-.021-.437c-.063-.125-.56-1.35-.769-1.839s-.406-.425-.56-.425a1.241,1.241,0,0,0-1.14.287c-1.345,1.479-1.006,3,.145,4.627,2.262,2.961,3.468,3.506,5.672,4.263a3.449,3.449,0,0,0,1.567.1,2.565,2.565,0,0,0,1.681-1.189,2.063,2.063,0,0,0,.15-1.188C16,13.159,15.839,13.1,15.589,12.984Z" transform="translate(-0.994 -1.057)"/><path class="b" d="M17.106,2.875C10.7-3.321.088,1.173.084,9.914a9.867,9.867,0,0,0,1.33,4.956L0,20.007,5.281,18.63A9.979,9.979,0,0,0,20.007,9.919a9.832,9.832,0,0,0-2.914-7.012Zm1.235,7.017A8.3,8.3,0,0,1,5.827,16.981l-.3-.178L2.4,17.615l.838-3.039-.2-.313a8.268,8.268,0,0,1,12.877-10.2,8.16,8.16,0,0,1,2.425,5.827Z" transform="translate(0 0)"/></g></g></svg>