<svg xmlns="http://www.w3.org/2000/svg" width="48" height="48" viewBox="0 0 48 48"><path d="M24,0A24,24,0,1,0,48,24,24.027,24.027,0,0,0,24,0ZM39.64,11.32a20.045,20.045,0,0,1,4.491,12.066,33.878,33.878,0,0,0-13.5-.13c-.722-1.689-1.47-3.3-2.225-4.82A39.744,39.744,0,0,0,39.64,11.32Zm-2.7-2.748A35.784,35.784,0,0,1,26.62,15.009,92.479,92.479,0,0,0,19.8,4.3,20.1,20.1,0,0,1,36.936,8.572ZM15.908,5.557A88.209,88.209,0,0,1,22.93,16.379,64.412,64.412,0,0,1,4.41,19.312,20.223,20.223,0,0,1,15.908,5.557ZM3.875,23.175h.114a69.689,69.689,0,0,0,12.217-1.128,59.365,59.365,0,0,0,8.552-2.206c.7,1.391,1.392,2.858,2.065,4.4a36.311,36.311,0,0,0-9.428,4.675,42.456,42.456,0,0,0-8.76,8.1A20.05,20.05,0,0,1,3.853,24C3.853,23.724,3.863,23.449,3.875,23.175ZM11.41,39.712a38.748,38.748,0,0,1,8.282-7.7,32.311,32.311,0,0,1,8.59-4.222,74.969,74.969,0,0,1,4.046,14.551A20.081,20.081,0,0,1,11.41,39.712Zm24.462.551a79.875,79.875,0,0,0-3.787-13.389,30.362,30.362,0,0,1,11.791.4A20.168,20.168,0,0,1,35.873,40.263Z" transform="translate(0 -0.001)"/></svg>