<svg xmlns="http://www.w3.org/2000/svg" width="60" height="60" viewBox="0 0 60 60"><defs><style>.a{fill:rgba(33,33,46,0.1);stroke:#38384a;}.b{fill:#3bb6ff;}.c{stroke:none;}.d{fill:none;}</style></defs><g transform="translate(-278 -61)"><g class="a" transform="translate(278 61)"><circle class="c" cx="30" cy="30" r="30"/><circle class="d" cx="30" cy="30" r="29.5"/></g><g transform="translate(295 20.5)"><path class="b" d="M25.585,74.512a1.04,1.04,0,0,0,1.04-1.04V64.66a4.165,4.165,0,0,0-4.16-4.16H4.16A4.165,4.165,0,0,0,0,64.66V76.673a4.165,4.165,0,0,0,4.16,4.16h18.3a4.165,4.165,0,0,0,4.16-4.16,1.04,1.04,0,1,0-2.08,0,2.082,2.082,0,0,1-2.08,2.08H4.16a2.082,2.082,0,0,1-2.08-2.08V64.881L11.116,70.5a4.134,4.134,0,0,0,4.394,0l9.036-5.619v8.592A1.04,1.04,0,0,0,25.585,74.512Zm-11.174-5.78a2.067,2.067,0,0,1-2.2,0L2.948,62.971A2.069,2.069,0,0,1,4.16,62.58h18.3a2.069,2.069,0,0,1,1.212.391Z"/></g></g></svg>