<svg xmlns="http://www.w3.org/2000/svg" width="40" height="40" viewBox="0 0 40 40"><defs><style>.a{fill:#ff2a63;}.b{fill:#fff;fill-rule:evenodd;}</style></defs><g transform="translate(-72 -4595)"><rect class="a" width="40" height="40" rx="15" transform="translate(72 4595)"/><path class="b" d="M17.944,17.8a1.908,1.908,0,1,0-1.936-1.909A1.914,1.914,0,0,0,17.944,17.8ZM13.929,28.021a6.559,6.559,0,0,0-.171,1.434,2.555,2.555,0,0,0,2.848,2.8,4.532,4.532,0,0,0,3.846-2.494l-.572,2.3h3.189l1.823-7.311c.456-1.851,1.338-2.812,2.677-2.812a1.594,1.594,0,0,1,1.709,1.737,3.414,3.414,0,0,1-.142,1.025l-.94,3.361a5.051,5.051,0,0,0-.2,1.424,2.6,2.6,0,0,0,2.9,2.762c1.68,0,3.019-1.082,3.759-3.673l-1.253-.484c-.627,1.736-1.168,2.05-1.595,2.05s-.655-.285-.655-.854A3.774,3.774,0,0,1,31.3,28.4l.912-3.274a7.223,7.223,0,0,0,.313-2.077c0-2.449-1.481-3.727-3.275-3.727-1.68,0-3.389,1.516-4.243,3.111l.626-2.863h-4.87l-.684,2.522h2.278l-1.4,5.617a3.572,3.572,0,0,1-3.38,2.432c-.417-.094-.684-.252-.684-.794a5.37,5.37,0,0,1,.2-1.3l2.136-8.473H13.815l-.684,2.522h2.25l-1.452,5.934Z" transform="translate(67.981 4591.174)"/></g></svg>