<svg xmlns="http://www.w3.org/2000/svg" width="40" height="40" viewBox="0 0 40 40"><defs><style>.a{fill:#1f0040;}.b{fill:#d291ff;stroke:#d291ff;}</style></defs><g transform="translate(-72 -4595)"><rect class="a" width="40" height="40" rx="15" transform="translate(72 4595)"/><path class="b" d="M93.856,132.127l-1.241,4.231c-.02.146-.082.195-.2.195H90.336c-.142,0-.183-.073-.142-.243,1.1-3.72,2.95-9.921,4.253-14.128a5.78,5.78,0,0,0,.163-1.337.13.13,0,0,1,.122-.146h2.808c.1,0,.122.024.163.122,1.506,4.985,3.154,10.48,4.7,15.514q.061.219-.122.219H100c-.1,0-.143-.049-.183-.146l-1.3-4.28Zm4.11-2.383c-.407-1.629-1.4-4.912-1.811-6.614h-.02c-.305,1.6-1.14,4.353-1.75,6.614Z" transform="translate(-8.959 4486.717)"/><path class="b" d="M283.056,185.019a2.869,2.869,0,0,0,3.112,3.111,5.745,5.745,0,0,0,2.593-.6c.062-.024.125,0,.125.12v1.914c0,.168-.042.215-.125.263a6.149,6.149,0,0,1-3.112.67c-3.775,0-5.145-2.967-5.145-5.982,0-3.422,1.763-6.126,4.875-6.126,3.05,0,4.274,2.68,4.274,4.906a3.533,3.533,0,0,1-.187,1.579,8.14,8.14,0,0,1-2.178.144Zm3.319-1.843c.768,0,.892-.1.913-.192v-.263a2.13,2.13,0,0,0-2.012-2.273c-1.349,0-2.054,1.2-2.22,2.728Z" transform="translate(-186.469 4432.91)"/></g></svg>