<svg xmlns="http://www.w3.org/2000/svg" xmlns:xlink="http://www.w3.org/1999/xlink" width="40" height="40" viewBox="0 0 40 40"><defs><style>.a{fill:#f5f5f5;}.b{fill:#fdb300;}.c{fill:#ea6c00;}.d{fill:#fdd231;}.e{fill:#fdad00;}.f{fill:#feeeb7;}.g{fill:url(#a);}</style><linearGradient id="a" x1="0.053" y1="0.218" x2="0.874" y2="0.635" gradientUnits="objectBoundingBox"><stop offset="0" stop-color="#fff" stop-opacity="0.2"/><stop offset="1" stop-color="#fff" stop-opacity="0"/></linearGradient></defs><g transform="translate(-72 -4595)"><rect class="a" width="40" height="40" rx="15" transform="translate(72 4595)"/><g transform="translate(81.673 4605.534)"><path class="b" d="M10.327,1l-5.821.635L0,7.452l10.327,12.48L20.654,7.452,16.148,1.635Z" transform="translate(0 0)"/><path class="c" d="M0,8.5l10.327,12.48h0L4.183,8.5Z" transform="translate(0 -1.045)"/><path class="c" d="M18.144,8.5,12,20.978h0L22.327,8.5Z" transform="translate(-1.673 -1.045)"/><path class="d" d="M5.184,1.635,4.861,7.452,11,1Z" transform="translate(-0.678 0)"/><path class="d" d="M18.144,7.452l-.323-5.817L12,1Z" transform="translate(-1.673 0)"/><path class="e" d="M19.087,7.555H23.27L18.764,1.738Z" transform="translate(-2.616 -0.103)"/><path class="e" d="M0,7.555H4.183l.323-5.817Z" transform="translate(0 -0.103)"/><path class="f" d="M11,1,4.861,7.452H17.148Z" transform="translate(-0.678 0)"/><path class="e" d="M4.86,8.5,11,20.978h0L17.149,8.5Z" transform="translate(-0.678 -1.045)"/><path class="g" d="M10.327,1l-5.821.635L0,7.452l10.327,12.48L20.654,7.452,16.148,1.635Z" transform="translate(0 0)"/></g></g></svg>