<svg xmlns="http://www.w3.org/2000/svg" xmlns:xlink="http://www.w3.org/1999/xlink" width="40" height="40" viewBox="0 0 40 40"><defs><style>.a{fill:#f8d8ff;}.b{fill:none;}.c{fill:url(#a);}</style><linearGradient id="a" x1="0.176" y1="0.108" x2="0.578" y2="0.702" gradientUnits="objectBoundingBox"><stop offset="0" stop-color="#c36ad5"/><stop offset="1" stop-color="#662caa"/></linearGradient></defs><g transform="translate(-72 -4595)"><rect class="a" width="40" height="40" rx="15" transform="translate(72 4595)"/><g transform="translate(81.054 4604.054)"><rect class="b" width="23" height="23" transform="translate(-0.054 -0.053)"/><path class="c" d="M24.665,16.106A1.754,1.754,0,1,0,22.9,14.352,1.76,1.76,0,0,0,24.665,16.106ZM16,19.136l0-10.6a8.585,8.585,0,1,1,8.665,8.531,2.711,2.711,0,1,1,0-5.422,3.052,3.052,0,0,0,3.049-3.109,3.129,3.129,0,0,0-6.258,0l0,11.651A2.752,2.752,0,0,1,17,22.335a1.752,1.752,0,0,0-1-3.2Z" transform="translate(-13.139 0)"/></g></g></svg>