<svg xmlns="http://www.w3.org/2000/svg" width="40" height="40" viewBox="0 0 40 40"><defs><style>.a{fill:#525967;}.b{fill:#0acf83;}.c{fill:#a259ff;}.d{fill:#f24e1e;}.e{fill:#ff7262;}.f{fill:#1abcfe;}</style></defs><g transform="translate(-72 -4595)"><rect class="a" width="40" height="40" rx="15" transform="translate(72 4595)"/><g transform="translate(84 4604)"><path class="b" d="M13.307,21.769a3.847,3.847,0,0,0,3.847-3.847V14H13.307a3.847,3.847,0,1,0,0,7.695Z" transform="translate(-9.359 1.265)"/><path class="c" d="M9.42,14.748A3.847,3.847,0,0,1,13.367,11h3.747V18.5H13.367A3.847,3.847,0,0,1,9.42,14.748Z" transform="translate(-9.419 -3.23)"/><path class="d" d="M9.421,11.713a3.847,3.847,0,0,1,3.947-3.822h3.747V15.66H13.368a3.847,3.847,0,0,1-3.947-3.947Z" transform="translate(-9.419 -7.889)"/><path class="e" d="M12.5,7.89h3.747a3.885,3.885,0,1,1,0,7.769H12.5Z" transform="translate(-4.804 -7.889)"/><path class="f" d="M20.194,14.748A3.847,3.847,0,1,1,16.247,11,3.847,3.847,0,0,1,20.194,14.748Z" transform="translate(-4.803 -3.23)"/></g></g></svg>