<svg xmlns="http://www.w3.org/2000/svg" width="40" height="40" viewBox="0 0 40 40"><defs><style>.a{fill:#242238;}.b{fill:#4fc7ec;stroke:#4fc7ec;stroke-width:0.7px;}</style></defs><g transform="translate(-72 -4595)"><rect class="a" width="40" height="40" rx="15" transform="translate(72 4595)"/><g transform="translate(-42.388 4486.374)"><path class="b" d="M125.388,121.106c0-.121.021-.169.124-.169.788-.024,2.343-.048,3.918-.048,4.063,0,5.613,2.364,5.634,5.16,0,3.832-2.856,5.285-5.9,5.285h-1.285v5.475c0,.145-.041.193-.145.193h-2.2c-.1,0-.145-.048-.145-.169V121.106ZM127.876,129a10.48,10.48,0,0,0,1.348.048c1.637,0,3.213-.467,3.213-2.877,0-1.928-1.057-2.919-3.006-2.919-.809,0-1.389.024-1.555.048Z" transform="translate(0)"/><path class="b" d="M291.529,182.689c-1,0-1.263.624-1.263,1.082,0,.579.265.892,1.792,1.615,2.1,1.012,2.994,1.9,2.994,3.639a3.536,3.536,0,0,1-3.809,3.782,5.88,5.88,0,0,1-3.3-.73.25.25,0,0,1-.122-.241v-2.217c0-.12.082-.169.143-.12a5.363,5.363,0,0,0,3.3,1.021,1.132,1.132,0,0,0,1.263-1.155c0-.627-.226-.988-1.693-1.687-2.1-1.012-2.971-1.882-2.971-3.642a3.576,3.576,0,0,1,3.868-3.565,5.052,5.052,0,0,1,2.689.419.357.357,0,0,1,.122.313v1.976c0,.144-.082.217-.183.144A5.269,5.269,0,0,0,291.529,182.689Z" transform="translate(-151.29 -55.494)"/></g></g></svg>